<?xml version="1.0" encoding="UTF-8" standalone="no"?>
<!-- Created with Inkscape (http://www.inkscape.org/) -->

<svg
   version="1.1"
   id="svg2"
   width="377.94666"
   height="151.18668"
   viewBox="0 0 377.94666 151.18668"
   sodipodi:docname="THUENEN_SCREEN_RGB.eps"
   xmlns:inkscape="http://www.inkscape.org/namespaces/inkscape"
   xmlns:sodipodi="http://sodipodi.sourceforge.net/DTD/sodipodi-0.dtd"
   xmlns="http://www.w3.org/2000/svg"
   xmlns:svg="http://www.w3.org/2000/svg">
  <defs
     id="defs6" />
  <sodipodi:namedview
     id="namedview4"
     pagecolor="#ffffff"
     bordercolor="#000000"
     borderopacity="0.25"
     inkscape:showpageshadow="2"
     inkscape:pageopacity="0.0"
     inkscape:pagecheckerboard="0"
     inkscape:deskcolor="#d1d1d1" />
  <g
     id="g8"
     inkscape:groupmode="layer"
     inkscape:label="ink_ext_XXXXXX"
     transform="matrix(1.3333333,0,0,-1.3333333,0,151.18667)">
    <g
       id="g10"
       transform="scale(0.1)">
      <path
         d="M 1229.1,506.867 V 262.289 h -19.89 v 244.578 h -78.09 v 17.676 h 176.43 v -17.676 h -78.45"
         style="fill:#334049;fill-opacity:1;fill-rule:nonzero;stroke:none"
         id="path12" />
      <path
         d="M 1519.36,262.289 V 385.688 H 1382.69 V 262.289 h -19.89 v 262.254 h 19.89 v -121.18 h 136.67 v 121.18 h 19.9 V 262.289 h -19.9"
         style="fill:#334049;fill-opacity:1;fill-rule:nonzero;stroke:none"
         id="path14" />
      <path
         d="m 1710.17,260.082 c -52.68,0 -89.87,36.094 -89.87,87.285 v 177.176 h 19.87 V 349.945 c 0,-43.457 28.01,-72.187 70,-72.187 41.99,0 69.98,28.73 69.98,72.187 v 174.598 h 19.9 V 347.367 c 0,-51.191 -37.21,-87.285 -89.88,-87.285"
         style="fill:#334049;fill-opacity:1;fill-rule:nonzero;stroke:none"
         id="path16" />
      <path
         d="m 2052.39,262.289 -151.44,228 v -228 h -19.91 v 262.254 h 19.91 L 2052.39,297.27 v 227.273 h 19.9 V 262.289 h -19.9"
         style="fill:#334049;fill-opacity:1;fill-rule:nonzero;stroke:none"
         id="path18" />
      <path
         d="m 2156.98,262.289 v 262.254 h 159.14 V 506.867 H 2176.88 V 403.363 h 118.6 v -17.675 h -118.6 V 279.965 h 139.24 v -17.676 h -159.14"
         style="fill:#334049;fill-opacity:1;fill-rule:nonzero;stroke:none"
         id="path20" />
      <path
         d="m 2552.24,262.289 -151.41,228 v -228 h -19.9 v 262.254 h 19.9 L 2552.24,297.27 v 227.273 h 19.88 V 262.289 h -19.88"
         style="fill:#334049;fill-opacity:1;fill-rule:nonzero;stroke:none"
         id="path22" />
      <path
         d="m 1683.76,566.949 c 0,-7.929 -6.43,-14.344 -14.34,-14.344 -7.91,0 -14.33,6.415 -14.33,14.344 0,7.891 6.42,14.309 14.33,14.309 7.91,0 14.34,-6.418 14.34,-14.309"
         style="fill:#334049;fill-opacity:1;fill-rule:nonzero;stroke:none"
         id="path24" />
      <path
         d="m 1766.3,566.949 c 0,-7.929 -6.41,-14.344 -14.32,-14.344 -7.93,0 -14.33,6.415 -14.33,14.344 0,7.891 6.4,14.309 14.33,14.309 7.91,0 14.32,-6.418 14.32,-14.309"
         style="fill:#334049;fill-opacity:1;fill-rule:nonzero;stroke:none"
         id="path26" />
      <path
         d="M 1011.44,871.555 V 222.758"
         style="fill:none;stroke:#334049;stroke-width:5;stroke-linecap:butt;stroke-linejoin:miter;stroke-miterlimit:4;stroke-dasharray:none;stroke-opacity:1"
         id="path28" />
      <path
         d="m 880.414,776.43 c 0,-44.328 -35.871,-80.207 -80.199,-80.207 -44.309,0 -80.231,35.879 -80.231,80.207 0,44.34 35.922,80.222 80.231,80.222 44.328,0 80.199,-35.882 80.199,-80.222"
         style="fill:#67c535;fill-opacity:1;fill-rule:nonzero;stroke:none"
         id="path30" />
      <path
         d="m 659.641,776.438 c 0,-39.567 -32.043,-71.625 -71.614,-71.625 -39.558,0 -71.632,32.058 -71.632,71.625 0,39.593 32.074,71.621 71.632,71.621 39.571,0 71.614,-32.028 71.614,-71.621"
         style="fill:#38ba89;fill-opacity:1;fill-rule:nonzero;stroke:none"
         id="path32" />
      <path
         d="m 668.223,576.336 c 0,-44.32 -35.887,-80.254 -80.203,-80.254 -44.297,0 -80.227,35.934 -80.227,80.254 0,44.285 35.93,80.18 80.227,80.18 44.316,0 80.203,-35.895 80.203,-80.18"
         style="fill:#3db7af;fill-opacity:1;fill-rule:nonzero;stroke:none"
         id="path34" />
      <path
         d="m 688.293,353.207 c 0,-55.41 -44.859,-100.293 -100.27,-100.293 -55.378,0 -100.281,44.883 -100.281,100.293 0,55.379 44.903,100.254 100.281,100.254 55.411,0 100.27,-44.875 100.27,-100.254"
         style="fill:#48a0de;fill-opacity:1;fill-rule:nonzero;stroke:none"
         id="path36" />
      <path
         d="m 456.047,776.438 c 0,-55.426 -44.84,-100.274 -100.266,-100.274 -55.371,0 -100.285,44.848 -100.285,100.274 0,55.402 44.914,100.273 100.285,100.273 55.426,0 100.266,-44.871 100.266,-100.273"
         style="fill:#3db7af;fill-opacity:1;fill-rule:nonzero;stroke:none"
         id="path38" />
      <path
         d="m 393.02,564.828 c 0,-20.555 -16.641,-37.273 -37.25,-37.273 -20.559,0 -37.239,16.718 -37.239,37.273 0,20.547 16.68,37.215 37.239,37.215 20.609,0 37.25,-16.668 37.25,-37.215"
         style="fill:#48a0de;fill-opacity:1;fill-rule:nonzero;stroke:none"
         id="path40" />
      <path
         d="m 378.688,353.207 c 0,-12.656 -10.235,-22.93 -22.907,-22.93 -12.672,0 -22.929,10.274 -22.929,22.93 0,12.656 10.257,22.91 22.929,22.91 12.672,0 22.907,-10.254 22.907,-22.91"
         style="fill:#428bd1;fill-opacity:1;fill-rule:nonzero;stroke:none"
         id="path42" />
      <path
         d="m 833.141,353.188 c 0,-18.204 -14.727,-32.93 -32.946,-32.93 -18.168,0 -32.949,14.726 -32.949,32.93 0,18.203 14.781,32.949 32.949,32.949 18.219,0 32.946,-14.746 32.946,-32.949"
         style="fill:#3db7af;fill-opacity:1;fill-rule:nonzero;stroke:none"
         id="path44" />
      <path
         d="m 817.387,564.832 c 0,-9.516 -7.703,-17.219 -17.211,-17.219 -9.461,0 -17.164,7.703 -17.164,17.219 0,9.453 7.703,17.156 17.164,17.156 9.508,0 17.211,-7.703 17.211,-17.156"
         style="fill:#38ba89;fill-opacity:1;fill-rule:nonzero;stroke:none"
         id="path46" />
    </g>
  </g>
</svg>
