<svg xmlns:xlink="http://www.w3.org/1999/xlink" width="83.322" xmlns="http://www.w3.org/2000/svg" height="83.173" id="screenshot-4be6107d-b553-8049-8004-18ccf50f7a8a" viewBox="0 0 83.322 83.173" style="-webkit-print-color-adjust: exact;" fill="none" version="1.1"><g id="shape-4be6107d-b553-8049-8004-18ccf50f7a8a" rx="0" ry="0"><g id="shape-4be6107d-b553-8049-8004-18ccc4b6181e"><g class="fills" id="fills-4be6107d-b553-8049-8004-18ccc4b6181e"><path rx="0" ry="0" d="M83.322,13.371C83.322,19.281,78.540,24.065,72.629,24.065C66.721,24.065,61.932,19.281,61.932,13.371C61.932,7.459,66.721,2.675,72.629,2.675C78.540,2.675,83.322,7.459,83.322,13.371Z" style="fill-rule: nonzero; fill: rgb(103, 197, 53); fill-opacity: 1;"/></g></g><g id="shape-4be6107d-b553-8049-8004-18ccc4b643e0"><g class="fills" id="fills-4be6107d-b553-8049-8004-18ccc4b643e0"><path rx="0" ry="0" d="M53.886,13.370C53.886,18.645,49.614,22.920,44.337,22.920C39.063,22.920,34.787,18.645,34.787,13.370C34.787,8.091,39.063,3.820,44.337,3.820C49.614,3.820,53.886,8.091,53.886,13.370Z" style="fill-rule: nonzero; fill: rgb(56, 186, 137); fill-opacity: 1;"/></g></g><g id="shape-4be6107d-b553-8049-8004-18ccc4b69fd2"><g class="fills" id="fills-4be6107d-b553-8049-8004-18ccc4b69fd2"><path rx="0" ry="0" d="M55.030,40.050C55.030,45.959,50.245,50.751,44.337,50.751C38.430,50.751,33.640,45.959,33.640,40.050C33.640,34.145,38.430,29.359,44.337,29.359C50.245,29.359,55.030,34.145,55.030,40.050Z" style="fill-rule: nonzero; fill: rgb(61, 183, 175); fill-opacity: 1;"/></g></g><g id="shape-4be6107d-b553-8049-8004-18ccc4b6ce73"><g class="fills" id="fills-4be6107d-b553-8049-8004-18ccc4b6ce73"><path rx="0" ry="0" d="M57.706,69.801C57.706,77.189,51.725,83.173,44.337,83.173C36.953,83.173,30.966,77.189,30.966,69.801C30.966,62.417,36.953,56.433,44.337,56.433C51.725,56.433,57.706,62.417,57.706,69.801Z" style="fill-rule: nonzero; fill: rgb(72, 160, 222); fill-opacity: 1;"/></g></g><g id="shape-4be6107d-b553-8049-8004-18ccc4b71490"><g class="fills" id="fills-4be6107d-b553-8049-8004-18ccc4b71490"><path rx="0" ry="0" d="M26.740,13.370C26.740,20.760,20.761,26.740,13.371,26.740C5.989,26.740,0.000,20.760,0.000,13.370C0.000,5.983,5.989,0.000,13.371,0.000C20.761,0.000,26.740,5.983,26.740,13.370Z" style="fill-rule: nonzero; fill: rgb(61, 183, 175); fill-opacity: 1;"/></g></g><g id="shape-4be6107d-b553-8049-8004-18ccc4b7668d"><g class="fills" id="fills-4be6107d-b553-8049-8004-18ccc4b7668d"><path rx="0" ry="0" d="M18.337,41.584C18.337,44.325,16.118,46.554,13.370,46.554C10.629,46.554,8.405,44.325,8.405,41.584C8.405,38.845,10.629,36.622,13.370,36.622C16.118,36.622,18.337,38.845,18.337,41.584Z" style="fill-rule: nonzero; fill: rgb(72, 160, 222); fill-opacity: 1;"/></g></g><g id="shape-4be6107d-b553-8049-8004-18ccc4b792ac"><g class="fills" id="fills-4be6107d-b553-8049-8004-18ccc4b792ac"><path rx="0" ry="0" d="M16.426,69.801C16.426,71.488,15.061,72.858,13.371,72.858C11.682,72.858,10.314,71.488,10.314,69.801C10.314,68.113,11.682,66.746,13.371,66.746C15.061,66.746,16.426,68.113,16.426,69.801Z" style="fill-rule: nonzero; fill: rgb(66, 139, 209); fill-opacity: 1;"/></g></g><g id="shape-4be6107d-b553-8049-8004-18ccc4b7efae"><g class="fills" id="fills-4be6107d-b553-8049-8004-18ccc4b7efae"><path rx="0" ry="0" d="M77.019,69.803C77.019,72.230,75.056,74.194,72.627,74.194C70.204,74.194,68.233,72.230,68.233,69.803C68.233,67.376,70.204,65.410,72.627,65.410C75.056,65.410,77.019,67.376,77.019,69.803Z" style="fill-rule: nonzero; fill: rgb(61, 183, 175); fill-opacity: 1;"/></g></g><g id="shape-4be6107d-b553-8049-8004-18ccc4b810ef"><g class="fills" id="fills-4be6107d-b553-8049-8004-18ccc4b810ef"><path rx="0" ry="0" d="M74.919,41.584C74.919,42.853,73.892,43.880,72.624,43.880C71.363,43.880,70.335,42.853,70.335,41.584C70.335,40.323,71.363,39.296,72.624,39.296C73.892,39.296,74.919,40.323,74.919,41.584Z" style="fill-rule: nonzero; fill: rgb(56, 186, 137); fill-opacity: 1;"/></g></g></g></svg>