<?xml version="1.0" encoding="UTF-8" standalone="no"?>
<!-- Created with Inkscape (http://www.inkscape.org/) -->

<svg
   version="1.1"
   id="svg2"
   viewBox="0 0 377.94666 151.18668"
   sodipodi:docname="THUENEN_SCREEN_White.eps"
   xmlns:inkscape="http://www.inkscape.org/namespaces/inkscape"
   xmlns:sodipodi="http://sodipodi.sourceforge.net/DTD/sodipodi-0.dtd"
   xmlns="http://www.w3.org/2000/svg"
   xmlns:svg="http://www.w3.org/2000/svg">
  <defs
     id="defs6" />
  <sodipodi:namedview
     id="namedview4"
     pagecolor="#ffffff"
     bordercolor="#000000"
     borderopacity="0.25"
     inkscape:showpageshadow="2"
     inkscape:pageopacity="0.0"
     inkscape:pagecheckerboard="0"
     inkscape:deskcolor="#d1d1d1" />
  <g
     id="g8"
     inkscape:groupmode="layer"
     inkscape:label="ink_ext_XXXXXX"
     transform="matrix(1.3333333,0,0,-1.3333333,0,151.18667)">
    <g
       id="g10"
       transform="scale(0.1)">
      <path
         d="M 1235.68,507.082 V 263.723 h -19.78 v 243.359 h -77.71 v 17.59 h 175.56 v -17.59 h -78.07"
         style="fill:#ffffff;fill-opacity:1;fill-rule:nonzero;stroke:none"
         id="path12" />
      <path
         d="M 1524.5,263.723 V 386.508 H 1388.51 V 263.723 h -19.79 v 260.949 h 19.79 V 404.094 h 135.99 v 120.578 h 19.8 V 263.723 h -19.8"
         style="fill:#ffffff;fill-opacity:1;fill-rule:nonzero;stroke:none"
         id="path14" />
      <path
         d="m 1714.35,261.531 c -52.42,0 -89.42,35.914 -89.42,86.848 v 176.293 h 19.77 V 350.945 c 0,-43.242 27.87,-71.832 69.65,-71.832 41.78,0 69.63,28.59 69.63,71.832 v 173.727 h 19.8 V 348.379 c 0,-50.934 -37.02,-86.848 -89.43,-86.848"
         style="fill:#ffffff;fill-opacity:1;fill-rule:nonzero;stroke:none"
         id="path16" />
      <path
         d="M 2054.86,263.723 1904.17,490.59 V 263.723 h -19.79 v 260.949 h 19.79 l 150.69,-226.141 v 226.141 h 19.81 V 263.723 h -19.81"
         style="fill:#ffffff;fill-opacity:1;fill-rule:nonzero;stroke:none"
         id="path18" />
      <path
         d="m 2158.93,263.723 v 260.949 h 158.35 v -17.59 H 2178.74 V 404.094 h 117.99 V 386.508 H 2178.74 V 281.313 h 138.54 v -17.59 h -158.35"
         style="fill:#ffffff;fill-opacity:1;fill-rule:nonzero;stroke:none"
         id="path20" />
      <path
         d="M 2552.21,263.723 2401.56,490.59 V 263.723 h -19.8 v 260.949 h 19.8 l 150.65,-226.141 v 226.141 h 19.78 V 263.723 h -19.78"
         style="fill:#ffffff;fill-opacity:1;fill-rule:nonzero;stroke:none"
         id="path22" />
      <path
         d="m 1688.08,566.863 c 0,-7.89 -6.4,-14.273 -14.27,-14.273 -7.88,0 -14.26,6.383 -14.26,14.273 0,7.852 6.38,14.239 14.26,14.239 7.87,0 14.27,-6.387 14.27,-14.239"
         style="fill:#ffffff;fill-opacity:1;fill-rule:nonzero;stroke:none"
         id="path24" />
      <path
         d="m 1770.2,566.863 c 0,-7.89 -6.37,-14.273 -14.24,-14.273 -7.89,0 -14.27,6.383 -14.27,14.273 0,7.852 6.38,14.239 14.27,14.239 7.87,0 14.24,-6.387 14.24,-14.239"
         style="fill:#ffffff;fill-opacity:1;fill-rule:nonzero;stroke:none"
         id="path26" />
      <path
         d="M 1013.45,869.945 V 224.391"
         style="fill:none;stroke:#ffffff;stroke-width:10;stroke-linecap:butt;stroke-linejoin:miter;stroke-miterlimit:4;stroke-dasharray:none;stroke-opacity:1"
         id="path28" />
      <path
         d="m 877.422,775.297 c 0,-44.109 -35.692,-79.805 -79.801,-79.805 -44.082,0 -79.828,35.696 -79.828,79.805 0,44.113 35.746,79.824 79.828,79.824 44.109,0 79.801,-35.711 79.801,-79.824"
         style="fill:#ffffff;fill-opacity:1;fill-rule:nonzero;stroke:none"
         id="path30" />
      <path
         d="m 657.75,775.305 c 0,-39.371 -31.883,-71.27 -71.25,-71.27 -39.367,0 -71.273,31.899 -71.273,71.27 0,39.394 31.906,71.265 71.273,71.265 39.367,0 71.25,-31.871 71.25,-71.265"
         style="fill:#ffffff;fill-opacity:1;fill-rule:nonzero;stroke:none"
         id="path32" />
      <path
         d="m 666.289,576.203 c 0,-44.101 -35.707,-79.851 -79.801,-79.851 -44.078,0 -79.824,35.75 -79.824,79.851 0,44.063 35.746,79.781 79.824,79.781 44.094,0 79.801,-35.718 79.801,-79.781"
         style="fill:#ffffff;fill-opacity:1;fill-rule:nonzero;stroke:none"
         id="path34" />
      <path
         d="m 686.262,354.188 c 0,-55.133 -44.637,-99.79 -99.77,-99.79 -55.101,0 -99.777,44.657 -99.777,99.79 0,55.109 44.676,99.753 99.777,99.753 55.133,0 99.77,-44.644 99.77,-99.753"
         style="fill:#ffffff;fill-opacity:1;fill-rule:nonzero;stroke:none"
         id="path36" />
      <path
         d="m 455.176,775.305 c 0,-55.145 -44.613,-99.77 -99.766,-99.77 -55.094,0 -99.781,44.625 -99.781,99.77 0,55.121 44.687,99.769 99.781,99.769 55.153,0 99.766,-44.648 99.766,-99.769"
         style="fill:#ffffff;fill-opacity:1;fill-rule:nonzero;stroke:none"
         id="path38" />
      <path
         d="m 392.461,564.754 c 0,-20.449 -16.559,-37.086 -37.063,-37.086 -20.457,0 -37.046,16.637 -37.046,37.086 0,20.445 16.589,37.027 37.046,37.027 20.504,0 37.063,-16.582 37.063,-37.027"
         style="fill:#ffffff;fill-opacity:1;fill-rule:nonzero;stroke:none"
         id="path40" />
      <path
         d="m 378.203,354.188 c 0,-12.594 -10.183,-22.813 -22.793,-22.813 -12.605,0 -22.812,10.219 -22.812,22.813 0,12.593 10.207,22.796 22.812,22.796 12.61,0 22.793,-10.203 22.793,-22.796"
         style="fill:#ffffff;fill-opacity:1;fill-rule:nonzero;stroke:none"
         id="path42" />
      <path
         d="m 830.387,354.168 c 0,-18.109 -14.657,-32.766 -32.785,-32.766 -18.075,0 -32.782,14.657 -32.782,32.766 0,18.113 14.707,32.789 32.782,32.789 18.128,0 32.785,-14.676 32.785,-32.789"
         style="fill:#ffffff;fill-opacity:1;fill-rule:nonzero;stroke:none"
         id="path44" />
      <path
         d="m 814.711,564.758 c 0,-9.473 -7.664,-17.133 -17.129,-17.133 -9.414,0 -17.074,7.66 -17.074,17.133 0,9.406 7.66,17.07 17.074,17.07 9.465,0 17.129,-7.664 17.129,-17.07"
         style="fill:#ffffff;fill-opacity:1;fill-rule:nonzero;stroke:none"
         id="path46" />
    </g>
  </g>
</svg>
